<svg xmlns="http://www.w3.org/2000/svg" xmlns:xlink="http://www.w3.org/1999/xlink" width="111" height="36" viewBox="0 0 111 36">
  <defs>
    <clipPath id="clip-path">
      <rect id="Rectangle_39" data-name="Rectangle 39" width="36" height="36" transform="translate(10 80)" fill="#008ac4" stroke="#707070" stroke-width="1"/>
    </clipPath>
  </defs>
  <g id="Group_47" data-name="Group 47" transform="translate(-41 -31)">
    <text id="iTrain" transform="translate(92 59)" fill="#008ac4" font-size="24" font-family="SegoeUI-Semibold, Segoe UI" font-weight="600"><tspan x="0" y="0">iTrain</tspan></text>
    <g id="Mask_Group_20" data-name="Mask Group 20" transform="translate(31 -49)" clip-path="url(#clip-path)">
      <g id="XMLID_24_" transform="translate(10 80)">
        <path id="XMLID_313_" d="M23.768,26.047c.074.006.149.01.224.01A3.134,3.134,0,0,0,27,22.81a3.409,3.409,0,0,0-.563-1.891A3.316,3.316,0,0,0,27.793,18.2,3.254,3.254,0,0,0,25.9,15.188a3.486,3.486,0,0,0,.126-.932,3.15,3.15,0,0,0-2.836-3.241,2.683,2.683,0,0,0-2.582-2.43,2.519,2.519,0,0,0-1.554.545V26.513a3.072,3.072,0,0,0,2.16.9,3.132,3.132,0,0,0,2.556-1.368Z" fill="#008ac4"/>
        <path id="XMLID_312_" d="M16.948,9.141a2.471,2.471,0,0,0-1.554-.556,2.683,2.683,0,0,0-2.582,2.43,3.15,3.15,0,0,0-2.836,3.241,3.489,3.489,0,0,0,.126.932A3.254,3.254,0,0,0,8.207,18.2a3.316,3.316,0,0,0,1.357,2.714A3.409,3.409,0,0,0,9,22.81a3.134,3.134,0,0,0,3.007,3.247c.076,0,.15,0,.224-.01a3.133,3.133,0,0,0,2.556,1.368,3.072,3.072,0,0,0,2.16-.9V9.141Z" fill="#008ac4"/>
        <path id="XMLID_311_" d="M3.781,14.156A14.769,14.769,0,0,1,14.09,3.832a4.169,4.169,0,0,1-.294-1.54,4.214,4.214,0,0,1,.041-.576A16.862,16.862,0,0,0,1.687,13.822c.134-.013.269-.02.407-.02a4.185,4.185,0,0,1,1.687.354Z" fill="#008ac4"/>
        <path id="XMLID_310_" d="M3.781,21.844a4.184,4.184,0,0,1-1.687.354c-.137,0-.273-.007-.407-.02a16.862,16.862,0,0,0,12.15,12.105,4.158,4.158,0,0,1,.254-2.115A14.769,14.769,0,0,1,3.781,21.844Z" fill="#008ac4"/>
        <path id="XMLID_309_" d="M32.219,14.156a4.184,4.184,0,0,1,1.687-.354c.137,0,.273.007.407.02A16.862,16.862,0,0,0,22.163,1.717a4.159,4.159,0,0,1-.254,2.115A14.769,14.769,0,0,1,32.219,14.156Z" fill="#008ac4"/>
        <path id="XMLID_70_" d="M32.219,21.844A14.77,14.77,0,0,1,21.91,32.168a4.169,4.169,0,0,1,.294,1.54,4.215,4.215,0,0,1-.04.576,16.862,16.862,0,0,0,12.15-12.105c-.134.013-.269.02-.407.02a4.185,4.185,0,0,1-1.687-.354Z" fill="#008ac4"/>
        <path id="XMLID_45_" d="M18,4.386a2.093,2.093,0,1,0-2.093-2.093A2.093,2.093,0,0,0,18,4.386Z" fill="#008ac4"/>
        <path id="XMLID_44_" d="M33.907,15.907A2.093,2.093,0,1,0,36,18,2.093,2.093,0,0,0,33.907,15.907Z" fill="#008ac4"/>
        <path id="XMLID_43_" d="M4.187,18a2.093,2.093,0,1,0-2.093,2.093A2.093,2.093,0,0,0,4.187,18Z" fill="#008ac4"/>
        <path id="XMLID_8_" d="M18,31.614a2.093,2.093,0,1,0,2.093,2.093A2.093,2.093,0,0,0,18,31.614Z" fill="#008ac4"/>
      </g>
    </g>
  </g>
</svg>
