<svg width="102" height="98" viewBox="0 0 102 98" fill="none" xmlns="http://www.w3.org/2000/svg">
<path d="M90.6591 34.7785L101.416 24.0214C101.86 23.5786 102.068 22.9522 101.98 22.3319C101.892 21.7117 101.516 21.1685 100.966 20.8666L88.0343 13.7655C87.0701 13.2364 85.8592 13.5889 85.3293 14.5531C84.8001 15.518 85.1518 16.7289 86.1168 17.2581L96.7221 23.0814L87.4903 32.3123L54.2869 14.0799L63.5179 4.84894L72.8493 9.97338C73.8135 10.5026 75.0251 10.1508 75.5543 9.18584C76.0843 8.22165 75.7318 7.01 74.7668 6.48082L64.1249 0.636556C63.3483 0.210103 62.3833 0.347844 61.7576 0.974294L50.9998 11.7321L40.242 0.974294C39.6156 0.347844 38.6506 0.210882 37.8747 0.636556L1.03328 20.8666C0.483874 21.1685 0.108005 21.7109 0.0200681 22.3319C-0.0686464 22.9522 0.139911 23.5786 0.583484 24.0214L11.3405 34.7785L0.583484 45.5347C0.139911 45.9783 -0.0686464 46.6039 0.0200681 47.225C0.108005 47.8452 0.483874 48.3884 1.03328 48.6895L12.1662 54.803V75.237C12.1662 75.9646 12.5623 76.6338 13.1996 76.984L50.0411 97.2133C50.3399 97.3775 50.6699 97.4592 50.9998 97.4592C51.3298 97.4592 51.6597 97.3775 51.9586 97.2133L88.8 76.984C89.4374 76.6338 89.8335 75.9646 89.8335 75.237V54.803L100.966 48.6903C101.516 48.3884 101.892 47.8452 101.98 47.225C102.068 46.6047 101.86 45.9783 101.416 45.5355L90.6591 34.7785ZM50.9998 52.7346L18.2976 34.7777L50.9998 16.82L83.7021 34.7777L50.9998 52.7346ZM38.4825 4.84894L47.7127 14.0799L14.5093 32.3123L5.27835 23.0814L38.4825 4.84894ZM14.5109 37.2438L47.7143 55.4762L38.4825 64.7079L5.27835 46.4755L14.5109 37.2438ZM85.8491 74.0588L52.992 92.1005V71.7359C52.992 70.6355 52.1002 69.7437 50.9998 69.7437C49.8995 69.7437 49.0076 70.6355 49.0076 71.7359V92.1005L16.1506 74.0588V56.9913L37.8747 68.9203C38.1759 69.0853 38.5059 69.1662 38.8327 69.1662C39.3487 69.1662 39.8591 68.9655 40.242 68.5826L50.9998 57.8248L61.7576 68.5826C62.1405 68.9662 62.651 69.1662 63.167 69.1662C63.4938 69.1662 63.8238 69.0853 64.1249 68.9203L85.8491 56.9913V74.0588ZM63.5179 64.7079L54.2862 55.4754L87.4895 37.2438L96.7221 46.4748L63.5179 64.7079Z" fill="#999999"/>
</svg>
